<?xml version="1.0" encoding="UTF-8"?>
<!-- Created with Inkscape (http://www.inkscape.org/) -->
<svg width="298.2" height="102.7" version="1.1" viewBox="0 0 78.91 27.17" xmlns="http://www.w3.org/2000/svg" xmlns:cc="http://creativecommons.org/ns#" xmlns:dc="http://purl.org/dc/elements/1.1/" xmlns:rdf="http://www.w3.org/1999/02/22-rdf-syntax-ns#">
	<metadata>
		<rdf:RDF>
			<cc:Work rdf:about="">
				<dc:format>image/svg+xml</dc:format>
				<dc:type rdf:resource="http://purl.org/dc/dcmitype/StillImage"/>
				<dc:title/>
			</cc:Work>
		</rdf:RDF>
	</metadata>
	<g transform="matrix(.4756 0 0 .4695 .05515 .0282)" style="stroke-width:2.116">
		<path d="m121.5 4.45a1.11 1.107 0 0 0-1.11 1.107v6.854a1.11 1.107 0 0 0 1.11 1.107h5.428a1.11 1.107 0 0 0 1.11-1.107v-6.854a1.11 1.107 0 0 0-1.11-1.107z" style="fill:#aeec94;stroke-width:2.116"/>
		<path d="m5.57 6.31a1.11 1.107 0 0 0-1.11 1.107v43.91a1.11 1.107 0 0 0 1.11 1.106h5.96a1.11 1.107 0 0 0 1.11-1.106v-17.45h5.381c2.209 0 3.825 0.4513 4.935 1.237a1.11 1.107 0 0 0 0.0062 0.0041c1.091 0.7616 2.474 2.576 3.889 5.436a1.11 1.107 0 0 0 0.0016 0.0041l5.636 11.27a1.11 1.107 0 0 0 0.9937 0.6129h6.402a1.11 1.107 0 0 0 0.9927-1.604l-6.045-11.99-0.0047-0.0088c-1.244-2.519-2.498-4.528-3.803-6.04l-0.0016-0.0016c-0.6704-0.7886-1.372-1.441-2.102-1.971 1.617-0.8066 3.054-1.813 4.053-3.237 1.449-2.038 2.15-4.582 2.15-7.517 0-4.451-1.349-8.008-4.109-10.34-2.761-2.337-6.8-3.411-11.99-3.411zm7.07 7.097h6.385c2.702 0 4.559 0.6135 5.745 1.684a1.11 1.107 0 0 0 0.01292 0.0098c1.202 1.054 1.836 2.606 1.836 4.964 0 2.357-0.6371 3.937-1.849 5.033-1.186 1.071-3.043 1.684-5.745 1.684h-6.385z" style="fill:#00007c;stroke-width:2.116"/>
		<path d="m101.6 7.93a1.11 1.107 0 0 0-1.11 1.107v8.247h-2.873a1.11 1.107 0 0 0-1.11 1.107v4.206a1.11 1.107 0 0 0 1.11 1.107h2.873v16.78c0 4.26 0.782 7.409 2.721 9.317a1.11 1.107 0 0 0 6e-3 0.0043c1.941 1.888 5.121 2.638 9.448 2.638h5.578a1.11 1.107 0 0 0 1.11-1.107v-4.529a1.11 1.107 0 0 0-1.11-1.107h-5.578c-2.127 0-3.346-0.4443-3.709-0.8092-0.2822-0.3006-0.7874-1.827-0.7874-4.408v-16.78h10.07a1.11 1.107 0 0 0 1.11-1.107v-4.206a1.11 1.107 0 0 0-1.11-1.107h-10.07v-8.247a1.11 1.107 0 0 0-1.11-1.107z" style="fill:#00007c;stroke-width:2.116"/>
		<path d="m54.59 16.48c-5.195 0-9.507 1.717-12.65 5.123-3.124 3.388-4.66 7.981-4.66 13.57 0 5.432 1.636 9.913 4.928 13.19a1.11 1.107 0 0 0 0.0016 0.0031c3.312 3.281 7.836 4.911 13.32 4.911 2.181 0 4.334-0.2245 6.455-0.6718 2.116-0.4462 4.181-1.095 6.193-1.946a1.11 1.107 0 0 0 0.677-1.019v-5.117a1.11 1.107 0 0 0-1.631-0.9782c-1.857 0.9823-3.722 1.714-5.6 2.2a1.11 1.107 0 0 0-0.0031 0c-1.853 0.4852-3.772 0.7292-5.767 0.7292-3.394 0-5.873-0.8869-7.662-2.596l-0.0016-0.0016c-1.543-1.509-2.414-3.767-2.791-6.631h23.61a1.11 1.107 0 0 0 1.11-1.107v-2.646c0-5.096-1.374-9.285-4.184-12.36-2.788-3.095-6.672-4.657-11.35-4.657zm0.05891 6.801c2.43 0 4.205 0.7465 5.612 2.286a1.11 1.107 0 0 0 0.0041 0.0057c1.206 1.304 1.816 3.078 2.032 5.233l-16.67 0.02585c0.3989-2.228 1.166-4.035 2.499-5.292 1.606-1.496 3.708-2.259 6.527-2.259z" style="fill:#00007c;stroke-width:2.116"/>
		<path d="m84.56 16.48c-4.206 0-7.594 0.8719-10.06 2.758-2.464 1.886-3.739 4.695-3.739 8.055 0 2.765 0.8499 5.122 2.573 6.817a1.11 1.107 0 0 0 0.0057 0.0057c1.729 1.678 4.352 2.794 7.833 3.524l-0.0258-0.0043 1.889 0.4418a1.11 1.107 0 0 0 0.0187 0.0043c3.305 0.7128 5.429 1.542 6.061 2.046a1.11 1.107 0 0 0 9e-3 0.0072c0.7383 0.5773 1.081 1.293 1.081 2.512 0 1.268-0.4341 2.054-1.553 2.772-1.115 0.6963-2.876 1.121-5.304 1.121-1.807 0-3.636-0.2426-5.496-0.7291-1.861-0.5066-3.765-1.257-5.707-2.263a1.11 1.107 0 0 0-1.622 0.9822v5.587a1.11 1.107 0 0 0 0.7673 1.052c2.164 0.6991 4.227 1.222 6.191 1.566 1e-3 2.7e-4 3e-3 -2.7e-4 4e-3 0 1e-3 2.43e-4 3e-3 0.0012 4e-3 0.0015 1.984 0.3627 3.898 0.5476 5.74 0.5476 4.405 0 7.993-0.9267 10.66-2.895 2.681-1.963 4.109-4.803 4.109-8.154 0-2.907-0.9308-5.361-2.804-7.074-1.861-1.74-4.768-2.928-8.725-3.773l-1.85-0.4103c-2.847-0.6329-4.722-1.352-5.39-1.839-0.7133-0.5391-0.9996-1.112-0.9996-2.082 0-1.348 0.4239-2.113 1.48-2.764 1.079-0.6525 2.917-1.071 5.494-1.071 1.688 0 3.313 0.1861 4.878 0.5576s3.073 0.9291 4.531 1.674a1.11 1.107 0 0 0 1.616-0.9851v-5.118a1.11 1.107 0 0 0-0.7027-1.029c-1.575-0.6199-3.284-1.081-5.123-1.387-1.838-0.3054-3.788-0.4546-5.849-0.4546z" style="fill:#00007c;stroke-width:2.116"/>
		<path d="m146 16.48c-1.852 0-3.748 0.2051-5.686 0.6118-1.935 0.3863-3.919 0.9723-5.955 1.756a1.11 1.107 0 0 0-0.71 1.032v5.001a1.11 1.107 0 0 0 1.644 0.9705c1.573-0.8586 3.204-1.501 4.902-1.929 1.7-0.4283 3.445-0.6418 5.245-0.6418 2.799 0 4.809 0.639 6.188 1.798a1.11 1.107 0 0 0 0.0114 0.0088c1.254 1.027 1.846 2.441 1.969 4.334h-6.399c-5.079 0-9.043 0.9524-11.82 3.046a1.11 1.107 0 0 0-3e-3 0.0031c-2.758 2.095-4.155 5.311-4.155 9.263 0 3.406 1.111 6.301 3.32 8.417a1.11 1.107 0 0 0 7e-3 0.0088c2.233 2.095 5.256 3.124 8.846 3.124 2.806 0 5.25-0.4948 7.292-1.534a1.11 1.107 0 0 0 8e-3 -0.0041c1.114-0.579 2.103-1.364 3.009-2.276v1.855a1.11 1.107 0 0 0 1.11 1.106h5.43a1.11 1.107 0 0 0 1.11-1.106v-18.79c0-5.193-1.227-9.258-3.846-12-2.619-2.741-6.543-4.049-11.52-4.049zm3.422 19.39h4.29v0.1003c0 3.339-0.8449 5.873-2.478 7.782-1.613 1.887-3.635 2.788-6.384 2.788-1.988 0-3.409-0.4889-4.451-1.396-1.024-0.9281-1.52-2.085-1.52-3.763 0-2.154 0.6386-3.364 1.994-4.165 1.33-0.7862 4.249-1.347 8.55-1.347z" style="fill:#00007c;stroke-width:2.116"/>
		<path d="m121.5 17.28a1.11 1.107 0 0 0-1.11 1.107v32.94a1.11 1.107 0 0 0 1.11 1.107h5.428a1.11 1.107 0 0 0 1.11-1.107v-32.94a1.11 1.107 0 0 0-1.11-1.107z" style="fill:#00007c;stroke-width:2.116"/>
		<path d="m121.5 0.5c-2.656 5.82e-4 -5.072 2.409-5.073 5.057v6.857c7e-5 0.3161 0.1338 0.605 0.199 0.9105h-4.519v-4.296c-5.3e-4 -2.648-2.416-5.056-5.073-5.057h-5.462c-2.656 6.08e-4 -5.072 2.409-5.073 5.057v4.534c-0.5006 0.1265-0.96 0.3067-1.401 0.5793-1.325-0.4155-2.631-0.8641-4.059-1.101-2.08-0.3455-4.247-0.509-6.5-0.509-4.756 0-9.083 0.9827-12.47 3.576-1.101 0.8429-1.977 1.883-2.742 2.998-0.1636-0.1957-0.2759-0.425-0.4486-0.6144-3.568-3.954-8.732-5.959-14.29-5.959-6.071 0-11.65 2.155-15.57 6.4h-0.0016c-0.01005 0.01091-0.01579 0.02473-0.02585 0.03566-0.2286-4.823-1.896-9.284-5.414-12.26-3.758-3.181-8.817-4.351-14.56-4.351h-13.46c-2.656 5.82e-4 -5.072 2.409-5.073 5.057v43.92c5.82e-4 2.648 2.417 5.056 5.073 5.057h5.963c2.656-5.29e-4 5.072-2.409 5.073-5.057v-13.5h1.417c3.5 0.01164 3.98 1.908 5.275 4.474 0.0033 0.0067 0.0065 0.01344 0.0098 0.02016l5.636 11.27c0.8368 1.672 2.667 2.801 4.541 2.801h6.401c1.542 7.94e-4 2.981-0.8298 3.931-2.036 3.439 1.891 7.425 2.889 11.72 2.889 2.454 0 4.886-0.2537 7.276-0.7576 2.18-0.4598 4.3-1.161 6.376-2.003 0.2843 0.1633 0.5555 0.3516 0.8692 0.4532h0.0026c2.774 0.7658 5.489 1.636 7.358 1.746-1.939-0.1319 3.86 0.5543 5.804 0.5617 4.96 0 9.458-1.046 13.01-3.665 1.081-0.7926 1.978-1.762 2.774-2.802 0.4212 0.6352 0.8329 1.276 1.398 1.833 8e-3 0.0071 0.0151 0.01415 0.0227 0.02119 2e-3 0.0016 4e-3 0.0029 6e-3 0.0047 5e-3 0.0048 0.01 0.0092 0.015 0.01394-0.1031-0.08432-0.0177-9e-3 0.078 0.07338-0.0253-0.02405-0.0508-0.04749-0.076-0.07183 0.3446 0.2999 0.208 0.1854 0.076 0.07183 3.107 2.949 7.381 3.669 12.12 3.669h5.579c0.5694-1.27e-4 1.115-0.1575 1.641-0.3576 0.526 0.2001 1.071 0.3575 1.641 0.3576h5.432c3.701 0 3.162-5.1 4.879-3.344 3.062 2.873 7.213 4.197 11.56 4.197 3.124 0 6.061-0.573 8.697-1.828 0.8134 0.5623 1.726 0.9749 2.721 0.9751h5.434c2.656-5.29e-4 5.072-2.409 5.073-5.057v-18.8c0-5.813-1.398-11.02-4.941-14.72-3.548-3.714-8.716-5.276-14.38-5.276-2.139 0-4.305 0.2377-6.483 0.6935-2.174 0.4352-4.368 1.086-6.587 1.94h-2e-3c-0.5764 0.2222-1.076 0.5836-1.529 1-0.1482-0.2751-0.3387-0.521-0.5333-0.7674 0.682-0.8635 1.167-1.88 1.167-2.984v-6.857c-5.3e-4 -2.648-2.416-5.056-5.073-5.057h-5.43z" style="fill:none;stroke-dasharray:3.3595241, 3.3595241;stroke-width:1.12;stroke:#949494"/>
	</g>
</svg>
